<?xml version="1.0" standalone="no"?>
<!DOCTYPE svg PUBLIC "-//W3C//DTD SVG 20010904//EN"
 "http://www.w3.org/TR/2001/REC-SVG-20010904/DTD/svg10.dtd">
<svg version="1.0" xmlns="http://www.w3.org/2000/svg"
 width="806.000000pt" height="806.000000pt" viewBox="0 0 806.000000 806.000000"
 preserveAspectRatio="xMidYMid meet">
<metadata>
Created by potrace 1.14, written by Peter Selinger 2001-2017
</metadata>
<g transform="translate(0.000000,806.000000) scale(0.100000,-0.100000)"
fill="#000000" stroke="none">
<path d="M5186 8034 c-8 -8 -378 -11 -1271 -12 -693 0 -1270 -1 -1282 -1 l-23
-1 0 -1288 0 -1289 -1267 -1 c-698 0 -1276 -1 -1285 -1 -15 -1 -16 -102 -16
-1420 l0 -1418 1276 -1 c703 0 1280 -1 1285 -1 4 -1 7 -583 7 -1295 l0 -1294
1420 0 1420 0 0 1294 0 1294 23 1 c12 0 590 1 1285 1 l1262 1 0 61 c3 697 -1
5370 -4 5374 -3 2 -638 5 -1412 6 -1002 1 -1411 -2 -1418 -10z m-10 -2856 c4
-4 7 -1431 4 -2230 l0 -97 -1147 2 -1148 2 -2 1155 c-1 635 -1 1160 1 1165 4
11 2281 13 2292 3z"/>
</g>
</svg>
